<?xml version="1.0" encoding="utf-8"?>
<!-- Generator: Adobe Illustrator 16.2.0, SVG Export Plug-In . SVG Version: 6.00 Build 0)  -->
<!DOCTYPE svg PUBLIC "-//W3C//DTD SVG 1.1//EN" "http://www.w3.org/Graphics/SVG/1.1/DTD/svg11.dtd">
<svg version="1.1" id="Layer_1" xmlns="http://www.w3.org/2000/svg" xmlns:xlink="http://www.w3.org/1999/xlink" x="0px" y="0px"
	 width="595.28px" height="841.89px" viewBox="0 0 595.28 841.89" enable-background="new 0 0 595.28 841.89" xml:space="preserve">
<g>
	<g>
		<g>
			<path fill="#414142" d="M108.971,630.75c-0.75-1.432-1.65-2.742-2.704-3.937c-1.054-1.196-2.277-2.207-3.666-3.036
				c1.09-1.043,1.921-2.324,2.492-3.86c0.572-1.53,0.854-3.127,0.854-4.79c0-1.872-0.323-3.66-0.971-5.378
				c-0.651-1.714-1.598-3.206-2.845-4.476c-1.245-1.274-2.739-2.286-4.481-3.041c-1.738-0.752-3.7-1.128-5.879-1.128
				c-1.871,0-3.713,0.376-5.53,1.128c-1.82,0.755-3.442,1.767-4.87,3.041c-1.431,1.27-2.585,2.762-3.468,4.476
				c-0.884,1.718-1.324,3.506-1.324,5.378c0,1.663,0.274,3.26,0.817,4.79c0.548,1.536,1.39,2.817,2.531,3.86
				c-2.751,2.23-4.714,4.699-5.88,7.399c-1.169,2.7-1.754,5.688-1.754,8.957c0,2.705,0.506,5.234,1.514,7.597
				c1.013,2.364,2.398,4.43,4.162,6.193c1.762,1.768,3.82,3.157,6.181,4.17c2.36,1.012,4.887,1.519,7.58,1.519
				c2.696,0,5.234-0.507,7.62-1.519c2.387-1.013,4.461-2.402,6.219-4.17c1.764-1.764,3.149-3.829,4.161-6.193
				c1.013-2.362,1.519-4.892,1.519-7.597c0-1.608-0.194-3.22-0.58-4.829S109.715,632.177,108.971,630.75z M88.345,612.243
				c0.934-0.934,2.074-1.402,3.427-1.402c1.348,0,2.476,0.469,3.39,1.402c0.904,0.934,1.36,2.078,1.36,3.431
				c0,1.349-0.456,2.489-1.36,3.427c-0.914,0.933-2.042,1.403-3.39,1.403c-1.353,0-2.493-0.471-3.427-1.403
				c-0.937-0.938-1.405-2.078-1.405-3.427C86.939,614.321,87.408,613.177,88.345,612.243z M100.766,644.009
				c-0.497,1.198-1.186,2.228-2.074,3.087c-0.888,0.863-1.93,1.539-3.128,2.036c-1.199,0.495-2.477,0.743-3.833,0.743
				s-2.634-0.248-3.833-0.743c-1.199-0.497-2.229-1.173-3.087-2.036c-0.862-0.859-1.54-1.889-2.037-3.087
				c-0.493-1.199-0.738-2.478-0.738-3.833c0-1.356,0.245-2.634,0.738-3.834c0.497-1.199,1.175-2.245,2.037-3.128
				c0.858-0.888,1.888-1.58,3.087-2.073c1.199-0.494,2.477-0.744,3.833-0.744s2.634,0.25,3.833,0.744
				c1.198,0.493,2.24,1.186,3.128,2.073c0.889,0.883,1.577,1.929,2.074,3.128c0.493,1.2,0.743,2.478,0.743,3.834
				C101.509,641.531,101.259,642.81,100.766,644.009z"/>
		</g>
	</g>
	<g>
		<polygon fill="#414142" points="120.675,601.263 150.433,659.69 156.047,648.473 132.361,601.263 		"/>
	</g>
	<g>
		<polygon fill="#414142" points="176.067,637.408 158.85,601.263 147.16,601.263 175.909,659.69 205.594,601.263 193.905,601.263 
					"/>
	</g>
	<g>
		<polygon fill="#414142" points="215.645,659.612 225.382,652.058 225.382,601.183 215.645,601.183 		"/>
	</g>
	<g>
		<polygon fill="#414142" points="240.885,601.183 240.885,610.919 274.386,610.919 236.521,659.612 289.577,659.612 
			289.577,649.875 255.998,649.875 294.954,601.183 		"/>
	</g>
	<g>
		<polygon fill="#414142" points="299.471,659.612 311.312,659.612 328.686,622.84 346.139,659.612 357.979,659.612 
			328.686,601.104 		"/>
	</g>
	<g>
		<path fill="#414142" d="M403.672,635.072c1.274-0.469,2.622-1.34,4.054-2.613c1.428-1.27,2.713-3.037,3.854-5.298
			c1.145-2.257,1.712-5.152,1.712-8.684c0-2.182-0.23-4.09-0.695-5.729c-0.469-1.633-1.082-3.048-1.835-4.242
			c-0.754-1.196-1.621-2.207-2.608-3.038c-0.987-0.834-1.976-1.535-2.958-2.104c-2.394-1.297-5.095-2.027-8.106-2.182h-28.123v9.736
			h28.123c1.195,0.055,2.262,0.362,3.194,0.931c0.83,0.464,1.585,1.214,2.261,2.248c0.673,1.033,1.012,2.48,1.012,4.339
			c0,1.913-0.339,3.386-1.012,4.423c-0.676,1.029-1.431,1.779-2.261,2.245c-0.933,0.567-1.999,0.878-3.194,0.93h-28.123v9.741h21.66
			l12.93,23.837h10.828l-13.01-23.837C401.635,635.775,402.398,635.537,403.672,635.072z"/>
	</g>
	<g>
		<path fill="#414142" d="M467.693,610.061c-2.662-2.646-5.758-4.763-9.291-6.347c-3.532-1.585-7.322-2.428-11.372-2.531h-19.479
			v9.736h20.644c2.548-0.049,4.937,0.469,7.169,1.564s4.169,2.555,5.805,4.381c1.638,1.826,2.932,3.925,3.895,6.298
			s1.44,4.783,1.44,7.234c0,2.453-0.478,4.863-1.44,7.235c-0.963,2.374-2.273,4.485-3.933,6.335
			c-1.664,1.852-3.596,3.328-5.803,4.418c-2.208,1.1-4.585,1.594-7.133,1.49h-20.644v9.737h19.479
			c3.787-0.05,7.438-0.831,10.942-2.335c3.507-1.508,6.617-3.573,9.332-6.195c2.712-2.621,4.883-5.714,6.505-9.272
			c1.622-3.554,2.435-7.364,2.435-11.413c0-3.895-0.758-7.595-2.278-11.102C472.448,615.791,470.356,612.711,467.693,610.061z"/>
	</g>
	<g>
		<path fill="#414142" d="M523.613,635.615c-0.729-1.816-1.635-3.36-2.725-4.633c-1.092-1.273-2.313-2.272-3.665-3
			c-1.352-0.73-2.663-1.311-3.933-1.754c-1.273-0.44-2.413-0.738-3.427-0.896c-1.016-0.157-1.729-0.258-2.145-0.313
			c-1.559-0.311-2.986-0.584-4.287-0.816c-1.296-0.231-2.4-0.584-3.309-1.055c-0.908-0.463-1.623-1.128-2.142-1.985
			c-0.522-0.854-0.778-2.038-0.778-3.544c0-2.128,0.828-3.779,2.493-4.945c1.659-1.168,3.97-1.755,6.932-1.755
			c1.401,0.055,2.727,0.209,3.974,0.469c1.037,0.259,2.074,0.66,3.116,1.207c1.038,0.545,1.842,1.313,2.414,2.3l7.95-6.158
			c-2.03-2.335-4.469-4.181-7.327-5.53c-2.854-1.351-5.87-2.023-9.036-2.023c-3.428,0-6.322,0.386-8.688,1.166
			c-2.364,0.779-4.322,1.754-5.883,2.925c-1.555,1.164-2.762,2.452-3.621,3.854c-0.855,1.401-1.48,2.715-1.866,3.933
			c-0.396,1.225-0.628,2.261-0.706,3.12c-0.075,0.854-0.116,1.336-0.116,1.439c0,2.231,0.336,4.17,1.013,5.804
			c0.675,1.634,1.519,3.038,2.535,4.207c1.011,1.17,2.153,2.132,3.427,2.884c1.272,0.756,2.493,1.364,3.659,1.829
			c1.169,0.469,2.236,0.804,3.197,1.013c0.958,0.213,1.647,0.34,2.063,0.39c1.559,0.316,3.023,0.639,4.401,0.975
			c1.378,0.337,2.598,0.81,3.663,1.403c1.063,0.596,1.908,1.377,2.532,2.336c0.621,0.961,0.938,2.199,0.938,3.705
			c0,2.073-0.835,3.878-2.494,5.412c-1.664,1.531-3.976,2.299-6.937,2.299c-1.611,0-3-0.194-4.166-0.586
			c-1.17-0.39-2.133-0.816-2.883-1.285c-0.755-0.469-1.327-0.908-1.718-1.323c-0.386-0.415-0.581-0.651-0.581-0.701l-7.947,6.152
			c2.027,2.339,4.454,4.169,7.285,5.493c2.828,1.322,5.827,1.987,8.997,1.987c3.428,0,6.322-0.415,8.687-1.245
			c2.36-0.834,4.323-1.885,5.884-3.157c1.556-1.27,2.75-2.634,3.584-4.09c0.829-1.452,1.452-2.829,1.867-4.127
			c0.415-1.3,0.663-2.403,0.741-3.312c0.076-0.908,0.117-1.415,0.117-1.518C524.704,639.614,524.339,637.438,523.613,635.615z"/>
	</g>
	<g>
		<g>
			<path fill="#414142" d="M351.036,473.443c5.011,1.074,28.275,16.461,28.275,16.461s-7.541-35.652-18.304-43.146l0.366-1.149
				c10.317-8.035,17.386-15.461,22.091-22.195c28.533-7.675,76.576-23.567,52.401-50.684
				c-10.787-12.102-31.525-20.687-53.801-26.733l-52.823-98.646l38.225,1.456l-16.353,6.378l23.908,6.268l1.427,24.675
				l13.351-20.796l23.904,6.264l-15.653-19.121l13.351-20.801l-23.028,8.982l-15.657-19.126l1.211,20.94l-67.262-62.14
				l-16.121,7.161l-77.197,157.551h0.005c-23.614,6.086-46.03,14.936-57.397,27.688c-23.975,26.896,23.096,42.748,51.705,50.498
				c4.938,7.119,12.508,15.013,23.788,23.597l0.021,0.055l0.036-0.008c-10.682,7.708-18.158,43.032-18.158,43.032
				s23.265-15.387,28.276-16.461c4.967-1.066,23.295,73.098,54.29,79.644h0.837C327.741,546.541,346.07,472.377,351.036,473.443z
				 M352.313,442.834c-13.525-5.106-24.481-5.455-33.239-3.326c5.991,0.585,13.487,1.75,20.536,4.069
				c7.48,2.46,13.015,6.028,17.117,9.873c10.313,9.663,11.517,21.075,11.517,21.075c-3.921-4.813-9.194-8.998-15.085-12.621
				c-15.25-9.37-34.438-16.307-45.457-18.93c-0.726,0.508-1.779,2.544-2.667,3.294c-19.498,2.303-24.402-7.044-24.415-7.069
				c0,0,9.186-31.873,12.272-45.7c1.05-4.708-8.646-9.6-16.25-13.097c11.43-1.029,27.413-1.021,39.208,0.062
				c-8.238,6.518-12.021,15.62-8.596,22.377c4.197,8.269,17.598,9.896,29.928,3.639c9.579-4.866,15.698-13.05,15.986-20.345
				c5.869,1.329,11.672,2.913,17.133,4.789L352.313,442.834z M295.058,190.731l6.48,4.659l8.828,6.344l60.948,43.78l-46.341-8.481
				l-11.91-2.177l3.467,11.872l35.53,92.603c-18.409-3.327-44.172-4.661-67.961-4.079l2.818-0.778l-3.866-61.392l-22.318,63.438
				c-6.325,0.56-12.202,1.284-17.376,2.175L295.058,190.731z M207.575,380.879c0,0-0.22,0.19-0.585,0.557
				c-0.547,0.538-1.008,1.053-1.385,1.547c-3.713,4.531-10.629,16.2-2.066,33.351c-10.181-4.073-22.063-9.907-30.401-17.346
				c-25.414-22.65,34.974-49.8,122.775-49.8c87.801,0,148.188,27.149,122.773,49.8c-8.537,7.612-20.776,13.541-31.115,17.632
				c7.364-14.512,3.65-25.137,0.059-30.874c-0.303-1.377-1.323-2.986-3.381-4.866c-10.986-10.006-70.738-13.512-88.336-13.151
				C275.601,368.143,218.563,370.873,207.575,380.879z M219.886,391.503c7.753-2.795,16.286-4.961,24.754-6.634
				c-2.651,4.714-1.857,10.933,6.173,17.521c15.927,13.064,27.069,6.704,26.846,9.126c-0.381,4.066-4.326,24.419-4.775,27.83
				c-8.491-1.913-19.008-1.503-31.877,3.244L219.886,391.503z M238.591,461.738c-5.389,3.32-10.45,7.428-14.586,12.501
				c0,0,3.455-12.558,11.134-20.685c1.647-1.742,3.485-3.286,5.531-4.455c13.781-7.875,32.213-4.651,32.213-4.651l3.644,1.515
				l4.949,2.064c0,0-0.904,0.071-2.48,0.268C272.457,449.111,254.165,452.148,238.591,461.738z M296.75,482.947
				c-0.29,0.026-0.571,0.042-0.837,0.042c-5.02,0-14.559-4.415-17.185-10.381c-2.626-5.965,2.271-9.425,6.563-8.592
				c4.298,0.834,5.975,5.132,10.621,5.132c0.29,0,0.567-0.016,0.837-0.049c4.029-0.473,5.755-4.299,9.779-5.083
				c4.298-0.833,9.188,2.627,6.563,8.592C310.607,478.265,301.923,482.516,296.75,482.947z"/>
		</g>
	</g>
</g>
</svg>
