<?xml version="1.0" encoding="utf-8"?>
<!-- Generator: Adobe Illustrator 16.2.0, SVG Export Plug-In . SVG Version: 6.00 Build 0)  -->
<!DOCTYPE svg PUBLIC "-//W3C//DTD SVG 1.1//EN" "http://www.w3.org/Graphics/SVG/1.1/DTD/svg11.dtd">
<svg version="1.1" id="Layer_1" xmlns="http://www.w3.org/2000/svg" xmlns:xlink="http://www.w3.org/1999/xlink" x="0px" y="0px"
	 width="595.28px" height="841.89px" viewBox="0 0 595.28 841.89" enable-background="new 0 0 595.28 841.89" xml:space="preserve">
<g>
	<g>
		<g>
			<path fill="#FFFFFF" d="M202.682,420.425c-0.379-0.721-0.83-1.381-1.362-1.981c-0.53-0.603-1.147-1.112-1.847-1.53
				c0.549-0.525,0.968-1.171,1.256-1.944c0.288-0.77,0.431-1.576,0.431-2.412c0-0.943-0.163-1.844-0.489-2.709
				c-0.329-0.863-0.804-1.614-1.434-2.254c-0.626-0.642-1.379-1.151-2.256-1.531c-0.876-0.379-1.864-0.568-2.96-0.568
				c-0.944,0-1.871,0.189-2.786,0.568c-0.917,0.38-1.733,0.89-2.453,1.531c-0.721,0.64-1.302,1.391-1.746,2.254
				c-0.445,0.865-0.667,1.766-0.667,2.709c0,0.836,0.138,1.642,0.411,2.412c0.277,0.773,0.7,1.419,1.275,1.944
				c-1.386,1.124-2.375,2.367-2.961,3.727c-0.588,1.36-0.884,2.865-0.884,4.51c0,1.363,0.254,2.638,0.763,3.826
				c0.51,1.191,1.207,2.231,2.095,3.119c0.889,0.891,1.926,1.591,3.115,2.101c1.188,0.509,2.461,0.765,3.816,0.765
				c1.357,0,2.636-0.256,3.838-0.765c1.202-0.51,2.247-1.21,3.132-2.101c0.888-0.888,1.586-1.928,2.096-3.119
				c0.51-1.188,0.765-2.463,0.765-3.826c0-0.809-0.098-1.621-0.292-2.432C203.343,421.909,203.057,421.144,202.682,420.425z
				 M192.294,411.104c0.47-0.47,1.044-0.706,1.727-0.706c0.678,0,1.245,0.236,1.706,0.706c0.455,0.47,0.685,1.046,0.685,1.728
				c0,0.68-0.229,1.253-0.685,1.727c-0.461,0.47-1.028,0.707-1.706,0.707c-0.683,0-1.257-0.237-1.727-0.707
				c-0.472-0.473-0.708-1.047-0.708-1.727C191.586,412.151,191.822,411.575,192.294,411.104z M198.549,427.104
				c-0.251,0.604-0.597,1.121-1.044,1.555c-0.448,0.434-0.973,0.774-1.575,1.024c-0.604,0.249-1.249,0.375-1.931,0.375
				c-0.683,0-1.327-0.126-1.931-0.375c-0.604-0.25-1.122-0.591-1.556-1.024c-0.433-0.434-0.775-0.951-1.025-1.555
				c-0.248-0.604-0.372-1.249-0.372-1.932s0.124-1.326,0.372-1.931c0.25-0.604,0.593-1.13,1.025-1.575
				c0.434-0.447,0.951-0.796,1.556-1.044c0.604-0.25,1.248-0.375,1.931-0.375c0.682,0,1.326,0.126,1.931,0.375
				c0.603,0.249,1.127,0.597,1.575,1.044c0.447,0.445,0.793,0.971,1.044,1.575c0.248,0.604,0.375,1.248,0.375,1.931
				S198.797,426.499,198.549,427.104z"/>
		</g>
	</g>
	<g>
		<polygon fill="#FFFFFF" points="208.576,405.575 223.563,435 226.391,429.351 214.463,405.575 		"/>
	</g>
	<g>
		<polygon fill="#FFFFFF" points="236.474,423.778 227.802,405.575 221.916,405.575 236.395,435 251.344,405.575 245.458,405.575 		
			"/>
	</g>
	<g>
		<polygon fill="#FFFFFF" points="256.406,434.961 261.311,431.156 261.311,405.534 256.406,405.534 		"/>
	</g>
	<g>
		<polygon fill="#FFFFFF" points="269.118,405.534 269.118,410.438 285.99,410.438 266.921,434.961 293.643,434.961 
			293.643,430.058 276.73,430.058 296.35,405.534 		"/>
	</g>
	<g>
		<polygon fill="#FFFFFF" points="298.625,434.961 304.588,434.961 313.338,416.441 322.129,434.961 328.092,434.961 
			313.338,405.495 		"/>
	</g>
	<g>
		<path fill="#FFFFFF" d="M351.104,422.602c0.643-0.235,1.321-0.674,2.042-1.316c0.719-0.639,1.366-1.529,1.94-2.668
			c0.576-1.136,0.863-2.594,0.863-4.373c0-1.099-0.116-2.06-0.351-2.886c-0.235-0.822-0.545-1.535-0.923-2.137
			c-0.381-0.603-0.817-1.111-1.314-1.53c-0.498-0.42-0.996-0.773-1.49-1.059c-1.206-0.653-2.565-1.021-4.082-1.099h-14.165v4.904
			h14.165c0.601,0.028,1.138,0.183,1.607,0.469c0.418,0.232,0.799,0.611,1.14,1.132c0.339,0.52,0.51,1.249,0.51,2.185
			c0,0.963-0.171,1.705-0.51,2.228c-0.341,0.518-0.722,0.896-1.14,1.13c-0.47,0.286-1.007,0.442-1.607,0.468h-14.165v4.907h10.909
			l6.513,12.004h5.452l-6.552-12.004C350.078,422.957,350.462,422.836,351.104,422.602z"/>
	</g>
	<g>
		<path fill="#FFFFFF" d="M383.347,410.005c-1.34-1.332-2.899-2.399-4.68-3.196c-1.777-0.798-3.687-1.223-5.727-1.275h-9.81v4.904
			h10.396c1.283-0.025,2.486,0.236,3.61,0.788c1.124,0.552,2.1,1.287,2.924,2.207c0.824,0.919,1.477,1.977,1.962,3.171
			c0.484,1.196,0.726,2.41,0.726,3.644c0,1.236-0.241,2.451-0.726,3.645c-0.485,1.195-1.146,2.259-1.98,3.189
			c-0.839,0.933-1.812,1.677-2.924,2.226c-1.111,0.553-2.309,0.803-3.592,0.751h-10.396v4.903h9.81
			c1.907-0.025,3.746-0.418,5.511-1.176c1.767-0.76,3.332-1.8,4.7-3.119c1.366-1.32,2.459-2.878,3.276-4.67
			c0.817-1.791,1.226-3.71,1.226-5.75c0-1.961-0.381-3.825-1.148-5.591C385.742,412.891,384.688,411.34,383.347,410.005z"/>
	</g>
	<g>
		<path fill="#FFFFFF" d="M411.511,422.876c-0.367-0.915-0.823-1.693-1.372-2.333c-0.55-0.642-1.166-1.145-1.848-1.511
			c-0.68-0.368-1.34-0.66-1.979-0.883c-0.642-0.222-1.215-0.372-1.726-0.452c-0.511-0.079-0.871-0.13-1.079-0.157
			c-0.786-0.156-1.505-0.294-2.16-0.411c-0.652-0.117-1.208-0.294-1.667-0.532c-0.456-0.233-0.816-0.568-1.078-1
			c-0.263-0.431-0.391-1.027-0.391-1.785c0-1.072,0.415-1.903,1.254-2.491c0.836-0.588,2-0.884,3.492-0.884
			c0.705,0.028,1.372,0.105,2,0.236c0.523,0.13,1.046,0.332,1.569,0.607c0.523,0.274,0.929,0.661,1.217,1.159l4.004-3.102
			c-1.022-1.176-2.251-2.105-3.69-2.786c-1.437-0.68-2.956-1.019-4.55-1.019c-1.727,0-3.185,0.195-4.377,0.588
			c-1.19,0.393-2.175,0.883-2.962,1.473c-0.782,0.586-1.392,1.235-1.823,1.941s-0.747,1.367-0.941,1.98
			c-0.198,0.617-0.314,1.139-0.355,1.572c-0.037,0.43-0.058,0.672-0.058,0.725c0,1.124,0.17,2.1,0.51,2.923
			c0.34,0.822,0.765,1.53,1.276,2.118c0.51,0.589,1.085,1.074,1.726,1.453c0.643,0.381,1.256,0.687,1.844,0.921
			c0.589,0.236,1.126,0.404,1.61,0.511c0.481,0.107,0.829,0.171,1.039,0.196c0.785,0.16,1.522,0.322,2.216,0.491
			c0.694,0.169,1.308,0.407,1.846,0.707c0.535,0.299,0.961,0.692,1.275,1.175c0.313,0.484,0.473,1.108,0.473,1.867
			c0,1.044-0.422,1.953-1.257,2.727c-0.838,0.77-2.003,1.157-3.494,1.157c-0.81,0-1.511-0.099-2.098-0.296
			c-0.589-0.196-1.073-0.411-1.451-0.646c-0.381-0.236-0.669-0.457-0.866-0.666c-0.193-0.209-0.292-0.329-0.292-0.354l-4.003,3.099
			c1.021,1.177,2.243,2.099,3.669,2.767c1.424,0.666,2.935,1,4.53,1c1.728,0,3.186-0.209,4.376-0.627
			c1.188-0.42,2.177-0.949,2.964-1.59c0.783-0.641,1.386-1.327,1.805-2.06c0.416-0.731,0.73-1.425,0.941-2.079
			c0.208-0.654,0.334-1.21,0.372-1.668c0.038-0.457,0.06-0.713,0.06-0.764C412.061,424.889,411.877,423.793,411.511,422.876z"/>
	</g>
</g>
</svg>
