<?xml version="1.0" encoding="utf-8"?>
<!-- Generator: Adobe Illustrator 16.2.0, SVG Export Plug-In . SVG Version: 6.00 Build 0)  -->
<!DOCTYPE svg PUBLIC "-//W3C//DTD SVG 1.1//EN" "http://www.w3.org/Graphics/SVG/1.1/DTD/svg11.dtd">
<svg version="1.1" id="Layer_1" xmlns="http://www.w3.org/2000/svg" xmlns:xlink="http://www.w3.org/1999/xlink" x="0px" y="0px"
	 width="138px" height="138px" viewBox="0 0 138 138" enable-background="new 0 0 138 138" xml:space="preserve">
<g>
	<path fill="#414142" d="M68.92,60.826H37.915c0.734,8.066,21.849,22.362,31.499,22.318c9.514-0.04,30.087-14.251,30.82-22.318
		H69.231H68.92z M83.329,69.125c-0.335,3.688-9.747,10.191-14.101,10.209c-4.414,0.023-14.074-6.521-14.411-10.209h7.714V63.63
		h13.088v5.495H83.329z"/>
	<path fill="#414142" d="M69,0C30.892,0,0,30.892,0,69c0,38.105,30.892,69,69,69c38.107,0,69-30.895,69-69
		C138,30.892,107.107,0,69,0z M106.031,61.141v33.34c0.312,7.792-4.206,7.788-4.206,7.788H69.048h-0.095H36.176
		c0,0-4.519,0.004-4.206-7.788v-33.34c0,0-2.025-1.093,7.791-9.815c9.757-8.675,24.276-23.187,29.192-23.354v-0.014
		c0.014,0,0.033,0.006,0.047,0.006c0.015,0,0.033-0.006,0.048-0.006v0.014c4.916,0.168,19.436,14.679,29.192,23.354
		C108.057,60.048,106.031,61.141,106.031,61.141z"/>
</g>
</svg>
