<?xml version="1.0" encoding="utf-8"?>
<!-- Generator: Adobe Illustrator 16.2.0, SVG Export Plug-In . SVG Version: 6.00 Build 0)  -->
<!DOCTYPE svg PUBLIC "-//W3C//DTD SVG 1.1//EN" "http://www.w3.org/Graphics/SVG/1.1/DTD/svg11.dtd">
<svg version="1.1" id="Layer_1" xmlns="http://www.w3.org/2000/svg" xmlns:xlink="http://www.w3.org/1999/xlink" x="0px" y="0px"
	 width="595.28px" height="841.89px" viewBox="0 0 595.28 841.89" enable-background="new 0 0 595.28 841.89" xml:space="preserve">
<g>
	<rect x="314.893" y="413.039" fill="#FFFFFF" width="29.133" height="39.749"/>
	<circle fill="#FFFFFF" cx="329.45" cy="456.205" r="1.763"/>
	<rect x="251.212" y="429.204" fill="#FFFFFF" width="14.765" height="22.768"/>
	<circle fill="#FFFFFF" cx="298.975" cy="435.712" r="2.365"/>
	<path fill="#FFFFFF" d="M297.609,351.363c-38.418,0-69.56,31.143-69.56,69.56c0,38.416,31.142,69.56,69.56,69.56
		c38.416,0,69.56-31.144,69.56-69.56C367.169,382.506,336.025,351.363,297.609,351.363z M268,453.302
		c0,1.443-1.17,2.612-2.612,2.612h-13.604c-1.443,0-2.612-1.169-2.612-2.612v-25.295c0-1.442,1.169-2.612,2.612-2.612h13.604
		c1.442,0,2.612,1.17,2.612,2.612V453.302z M310.227,452.725h-32.023c-1.207,0-2.193-0.986-2.193-2.193
		c0-1.206,0.986-2.193,2.193-2.193h5.313v-4.037h26.71V452.725z M310.238,411.842v29.808h-39.626v-13.643
		c0-2.881-2.344-5.225-5.225-5.225h-6.803v-33.747c0-3.607,2.925-6.531,6.532-6.531h66.072c3.606,0,6.531,2.924,6.531,6.531v17.582
		h-22.256C312.583,406.617,310.238,408.96,310.238,411.842z M346.049,456.73c0,1.443-1.17,2.613-2.612,2.613h-27.972
		c-1.443,0-2.613-1.17-2.613-2.613v-44.889c0-1.442,1.17-2.612,2.613-2.612h27.972c1.442,0,2.612,1.17,2.612,2.612V456.73z"/>
</g>
</svg>
