<?xml version="1.0" encoding="utf-8"?>
<!-- Generator: Adobe Illustrator 16.2.0, SVG Export Plug-In . SVG Version: 6.00 Build 0)  -->
<!DOCTYPE svg PUBLIC "-//W3C//DTD SVG 1.1//EN" "http://www.w3.org/Graphics/SVG/1.1/DTD/svg11.dtd">
<svg version="1.1" id="Layer_1" xmlns="http://www.w3.org/2000/svg" xmlns:xlink="http://www.w3.org/1999/xlink" x="0px" y="0px"
	 width="138px" height="138px" viewBox="1 0 138 138" enable-background="new 1 0 138 138" xml:space="preserve">
<g>
	<path fill="#FFFFFF" d="M66.016,91.446l-1.366-0.57l-1.005-0.418c0,0-5.088-0.89-8.893,1.285c-0.563,0.322-1.071,0.747-1.525,1.229
		c-2.119,2.243-3.074,5.709-3.074,5.709c1.143-1.399,2.539-2.533,4.027-3.449c4.299-2.647,9.348-3.486,11.152-3.711
		C65.767,91.466,66.016,91.446,66.016,91.446z"/>
	<path fill="#FFFFFF" d="M63.645,89.05c0.124-0.941,1.213-6.559,1.317-7.681c0.062-0.67-3.013,1.087-7.409-2.52
		c-2.217-1.818-2.436-3.535-1.704-4.836c-2.337,0.462-4.692,1.061-6.832,1.831l5.829,14.102
		C58.398,88.635,61.301,88.522,63.645,89.05z"/>
	<path fill="#FFFFFF" d="M72.932,95.859c-1.111,0.218-1.588,1.272-2.699,1.403c-0.074,0.009-0.15,0.014-0.232,0.014
		c-1.281,0-1.744-1.187-2.93-1.417c-1.186-0.229-2.537,0.726-1.813,2.372s3.357,2.865,4.742,2.865c0.074,0,0.152-0.004,0.232-0.012
		c1.428-0.119,3.825-1.293,4.51-2.854C75.467,96.585,74.117,95.63,72.932,95.859z"/>
	<path fill="#FFFFFF" d="M66.451,43.158l1.066,16.946l-0.777,0.214c6.565-0.161,13.678,0.207,18.759,1.126l-9.808-25.56
		l-0.957-3.277l3.287,0.601l12.791,2.341L73.99,23.465l-2.438-1.75l-1.787-1.287L55.494,61.269c1.429-0.246,3.051-0.445,4.797-0.6
		L66.451,43.158z"/>
	<path fill="#FFFFFF" d="M70,0C31.891,0,1,30.893,1,69s30.891,69,69,69c38.106,0,69-30.893,69-69S108.106,0,70,0z M94.167,84.652
		c-1.298,1.859-3.249,3.909-6.098,6.126l-0.102,0.317c2.972,2.069,5.053,11.909,5.053,11.909s-6.422-4.247-7.805-4.543
		c-1.37-0.295-6.43,20.177-14.983,21.982H70c-8.555-1.806-13.613-22.277-14.984-21.982c-1.383,0.296-7.805,4.543-7.805,4.543
		s2.064-9.75,5.012-11.877l-0.01,0.001l-0.006-0.014c-3.113-2.37-5.203-4.549-6.565-6.513c-7.897-2.141-20.889-6.516-14.272-13.94
		c3.139-3.519,9.325-5.962,15.844-7.642h-0.002L68.52,19.534l4.449-1.977l18.564,17.151l-0.334-5.78l4.322,5.279l6.357-2.479
		l-3.687,5.741l4.321,5.278l-6.598-1.729l-3.686,5.74l-0.395-6.811l-6.599-1.731l4.514-1.76L79.2,36.057l14.581,27.228
		c6.146,1.669,11.872,4.039,14.85,7.378C115.303,78.147,102.043,82.534,94.167,84.652z"/>
	<path fill="#FFFFFF" d="M70,64.165c-24.234,0-40.902,7.493-33.888,13.746c2.302,2.052,5.581,3.663,8.392,4.786
		c-2.363-4.733-0.454-7.954,0.57-9.204c0.104-0.137,0.23-0.278,0.383-0.428c0.1-0.102,0.16-0.153,0.16-0.153
		C48.65,70.15,64.395,69.397,70,69.282c4.858-0.101,21.351,0.868,24.383,3.63c0.568,0.52,0.85,0.963,0.934,1.343
		c0.992,1.584,2.017,4.517-0.016,8.522c2.854-1.129,6.23-2.766,8.588-4.866C110.903,71.658,94.235,64.165,70,64.165z"/>
	<path fill="#FFFFFF" d="M81.392,79.979c-3.402,1.728-7.101,1.278-8.261-1.005c-0.945-1.865,0.1-4.377,2.373-6.177
		c-3.256-0.298-7.667-0.301-10.822-0.016c2.1,0.965,4.775,2.315,4.484,3.615c-0.852,3.816-3.387,12.613-3.387,12.613
		c0.004,0.008,1.357,2.588,6.739,1.951c0.245-0.206,0.536-0.769,0.737-0.909c3.04,0.725,8.337,2.639,12.546,5.226
		c1.626,0.999,3.081,2.154,4.164,3.483c0,0-0.333-3.149-3.179-5.817c-1.133-1.062-2.66-2.046-4.725-2.726
		c-1.946-0.64-4.016-0.962-5.669-1.123c2.418-0.588,5.442-0.491,9.175,0.918l4.966-14.328c-1.509-0.518-3.108-0.955-4.729-1.322
		C85.726,76.377,84.036,78.636,81.392,79.979z"/>
</g>
</svg>
