<?xml version="1.0" encoding="utf-8"?>
<!-- Generator: Adobe Illustrator 16.2.0, SVG Export Plug-In . SVG Version: 6.00 Build 0)  -->
<!DOCTYPE svg PUBLIC "-//W3C//DTD SVG 1.1//EN" "http://www.w3.org/Graphics/SVG/1.1/DTD/svg11.dtd">
<svg version="1.1" id="Layer_1" xmlns="http://www.w3.org/2000/svg" xmlns:xlink="http://www.w3.org/1999/xlink" x="0px" y="0px"
	 width="138px" height="138px" viewBox="0 0 138 138" enable-background="new 0 0 138 138" xml:space="preserve">
<g>
	<path fill="#FFFFFF" d="M65.016,91.446l-1.367-0.569l-1.004-0.419c0,0-5.087-0.89-8.893,1.284c-0.565,0.322-1.071,0.749-1.525,1.23
		c-2.121,2.243-3.075,5.709-3.075,5.709c1.143-1.4,2.539-2.535,4.027-3.451c4.299-2.646,9.348-3.484,11.152-3.711
		C64.767,91.467,65.016,91.446,65.016,91.446z"/>
	<path fill="#FFFFFF" d="M84.499,61.444l-9.808-25.56l-0.957-3.277l3.287,0.601l12.791,2.34L72.99,23.464l-2.437-1.75l-1.789-1.287
		l-14.271,40.84C62.39,59.909,76.17,59.939,84.499,61.444z"/>
	<path fill="#FFFFFF" d="M71.931,95.859c-1.111,0.217-1.587,1.271-2.699,1.404c-0.074,0.008-0.15,0.014-0.231,0.014
		c-1.283,0-1.745-1.188-2.932-1.418c-1.185-0.23-2.536,0.726-1.811,2.372c0.725,1.647,3.356,2.864,4.742,2.864
		c0.073,0,0.15-0.004,0.231-0.012c1.428-0.118,3.824-1.291,4.512-2.853C74.468,96.585,73.118,95.629,71.931,95.859z"/>
	<path fill="#FFFFFF" d="M62.645,89.049c0.124-0.939,1.212-6.558,1.318-7.68c0.061-0.67-3.015,1.086-7.412-2.52
		c-2.217-1.818-2.435-3.535-1.703-4.837c-2.337,0.462-4.691,1.061-6.833,1.831l5.831,14.102
		C57.397,88.635,60.299,88.521,62.645,89.049z"/>
	<path fill="#FFFFFF" d="M68.999,0C30.891,0,0,30.892,0,69c0,38.107,30.891,69,68.999,69C107.106,138,138,107.106,138,69
		C138,30.892,107.106,0,68.999,0z M93.167,84.652c-1.299,1.859-3.251,3.908-6.097,6.127l-0.102,0.316
		c2.97,2.068,5.052,11.91,5.052,11.91s-6.422-4.248-7.806-4.545c-1.37-0.295-6.429,20.178-14.983,21.984H69
		c-8.554-1.807-13.613-22.279-14.984-21.984c-1.384,0.297-7.806,4.545-7.806,4.545s2.064-9.752,5.013-11.879l-0.01,0.002
		l-0.007-0.014c-3.112-2.369-5.203-4.549-6.564-6.515c-7.897-2.139-20.89-6.515-14.272-13.938c3.138-3.521,9.324-5.962,15.843-7.642
		H46.21l21.31-43.488l4.449-1.977l20.616,19.046l-14.386-0.548L92.78,63.284c6.147,1.669,11.872,4.039,14.85,7.378
		C114.303,78.146,101.042,82.534,93.167,84.652z"/>
	<path fill="#FFFFFF" d="M80.393,79.979c-3.404,1.727-7.103,1.277-8.261-1.004c-0.946-1.867,0.098-4.379,2.373-6.178
		c-3.258-0.299-7.669-0.301-10.823-0.017c2.1,0.964,4.775,2.314,4.484,3.614C67.314,80.212,64.78,89.01,64.78,89.01
		c0.004,0.007,1.355,2.586,6.738,1.951c0.245-0.207,0.536-0.77,0.736-0.909c3.042,0.724,8.338,2.638,12.546,5.225
		c1.628,1,3.083,2.156,4.165,3.483c0,0-0.333-3.149-3.179-5.816c-1.133-1.063-2.661-2.047-4.726-2.727
		c-1.944-0.64-4.015-0.96-5.669-1.121c2.419-0.588,5.441-0.492,9.176,0.917l4.965-14.328c-1.508-0.519-3.108-0.956-4.729-1.321
		C84.726,76.377,83.036,78.635,80.393,79.979z"/>
	<path fill="#FFFFFF" d="M69,64.164c-24.234,0-40.902,7.494-33.889,13.746c2.304,2.054,5.582,3.664,8.392,4.789
		c-2.363-4.736-0.453-7.956,0.57-9.207c0.104-0.137,0.231-0.277,0.382-0.426c0.103-0.103,0.162-0.154,0.162-0.154
		c3.033-2.763,18.777-3.517,24.383-3.63c4.858-0.099,21.35,0.868,24.383,3.63c0.568,0.519,0.85,0.963,0.933,1.342
		c0.992,1.585,2.018,4.517-0.015,8.523c2.854-1.131,6.231-2.766,8.588-4.867C109.902,71.658,93.235,64.164,69,64.164z"/>
</g>
</svg>
