<?xml version="1.0" encoding="utf-8"?>
<!-- Generator: Adobe Illustrator 16.2.0, SVG Export Plug-In . SVG Version: 6.00 Build 0)  -->
<!DOCTYPE svg PUBLIC "-//W3C//DTD SVG 1.1//EN" "http://www.w3.org/Graphics/SVG/1.1/DTD/svg11.dtd">
<svg version="1.1" id="Layer_1" xmlns="http://www.w3.org/2000/svg" xmlns:xlink="http://www.w3.org/1999/xlink" x="0px" y="0px"
	 width="219.942px" height="27.623px" viewBox="0 0 219.942 27.623" enable-background="new 0 0 219.942 27.623"
	 xml:space="preserve">
<g>
	<path fill="#FFFFFF" d="M19.391,10.682c0.656,0.392,1.235,0.871,1.732,1.436c0.499,0.564,0.925,1.185,1.279,1.861
		c0.351,0.674,0.62,1.392,0.802,2.153c0.183,0.761,0.274,1.522,0.274,2.282c0,1.279-0.238,2.476-0.717,3.592
		c-0.479,1.117-1.134,2.095-1.967,2.928c-0.832,0.836-1.813,1.492-2.941,1.972c-1.128,0.479-2.327,0.718-3.603,0.718
		c-1.272,0-2.467-0.239-3.583-0.718c-1.115-0.479-2.089-1.136-2.923-1.972c-0.833-0.833-1.487-1.811-1.967-2.928
		c-0.477-1.116-0.716-2.313-0.716-3.592c0-1.545,0.276-2.957,0.829-4.233c0.552-1.277,1.479-2.444,2.779-3.499
		c-0.539-0.492-0.938-1.099-1.196-1.825C7.218,8.133,7.088,7.379,7.088,6.592c0-0.884,0.209-1.729,0.626-2.542
		c0.418-0.81,0.964-1.516,1.64-2.116c0.676-0.603,1.441-1.081,2.303-1.438c0.859-0.355,1.729-0.533,2.615-0.533
		c1.029,0,1.957,0.178,2.778,0.533c0.823,0.357,1.53,0.835,2.118,1.438c0.59,0.6,1.038,1.307,1.346,2.116
		c0.307,0.812,0.459,1.657,0.459,2.542c0,0.787-0.134,1.542-0.404,2.265C20.297,9.583,19.907,10.189,19.391,10.682z M14.251,23.02
		c0.642,0,1.245-0.117,1.812-0.351c0.567-0.235,1.061-0.556,1.479-0.964c0.422-0.405,0.746-0.892,0.981-1.459
		c0.233-0.566,0.352-1.17,0.352-1.813c0-0.641-0.118-1.244-0.352-1.812c-0.235-0.567-0.56-1.061-0.981-1.479
		c-0.418-0.42-0.911-0.748-1.479-0.981c-0.566-0.233-1.17-0.351-1.812-0.351c-0.641,0-1.245,0.118-1.813,0.351
		c-0.566,0.233-1.053,0.561-1.459,0.981c-0.408,0.417-0.728,0.911-0.962,1.479s-0.35,1.171-0.35,1.812
		c0,0.643,0.115,1.246,0.35,1.813c0.234,0.567,0.554,1.054,0.962,1.459c0.406,0.408,0.893,0.729,1.459,0.964
		C13.006,22.902,13.611,23.02,14.251,23.02z M14.272,9.134c0.637,0,1.17-0.222,1.602-0.663c0.428-0.443,0.644-0.982,0.644-1.62
		c0-0.64-0.216-1.181-0.644-1.622c-0.432-0.441-0.965-0.663-1.602-0.663c-0.641,0-1.18,0.222-1.621,0.663
		c-0.443,0.441-0.664,0.982-0.664,1.622c0,0.638,0.221,1.177,0.664,1.62C13.092,8.912,13.631,9.134,14.272,9.134z"/>
	<path fill="#FFFFFF" d="M44.658,22.357l-2.654,5.303L27.935,0.038h5.525L44.658,22.357z M62.555,0.038h5.525L54.047,27.66
		L40.456,0.038h5.527l8.139,17.089L62.555,0.038z"/>
	<path fill="#FFFFFF" d="M72.833,0h4.604v24.051l-4.604,3.572V0z"/>
	<path fill="#FFFFFF" d="M107.785,23.02v4.604H82.702l17.9-23.02H84.765V0h25.562L91.911,23.02H107.785z"/>
	<path fill="#FFFFFF" d="M140.123,27.623h-5.598l-8.251-17.385l-8.214,17.385h-5.598l13.812-27.66L140.123,27.623z"/>
	<path fill="#FFFFFF" d="M166.789,27.623h-5.119l-6.114-11.27h-10.239v-4.605h13.296c0.564-0.023,1.068-0.17,1.51-0.439
		c0.392-0.22,0.749-0.575,1.068-1.062c0.318-0.49,0.479-1.186,0.479-2.09c0-0.878-0.161-1.563-0.479-2.052
		c-0.319-0.488-0.677-0.843-1.068-1.063c-0.441-0.269-0.945-0.414-1.51-0.439h-13.296V0h13.296c1.423,0.073,2.7,0.418,3.831,1.032
		c0.466,0.269,0.933,0.6,1.399,0.994c0.466,0.392,0.876,0.871,1.234,1.436c0.354,0.565,0.644,1.233,0.866,2.006
		c0.22,0.775,0.329,1.677,0.329,2.708c0,1.669-0.27,3.038-0.81,4.105c-0.54,1.069-1.147,1.904-1.823,2.504
		c-0.676,0.602-1.314,1.013-1.916,1.235c-0.602,0.22-0.962,0.332-1.086,0.332L166.789,27.623z"/>
	<path fill="#FFFFFF" d="M187.597,1.196c1.671,0.75,3.134,1.75,4.394,3.001c1.259,1.253,2.247,2.709,2.965,4.366
		c0.717,1.657,1.077,3.406,1.077,5.248c0,1.915-0.386,3.714-1.151,5.396c-0.767,1.683-1.793,3.144-3.076,4.383
		c-1.283,1.24-2.753,2.217-4.411,2.93c-1.656,0.711-3.383,1.08-5.173,1.104h-9.209V23.02h9.76c1.205,0.049,2.328-0.184,3.372-0.704
		c1.043-0.515,1.957-1.214,2.744-2.089c0.784-0.875,1.403-1.873,1.858-2.994c0.455-1.123,0.681-2.262,0.681-3.421
		s-0.226-2.299-0.681-3.42s-1.066-2.114-1.842-2.977c-0.772-0.863-1.688-1.554-2.744-2.071c-1.055-0.518-2.184-0.763-3.389-0.739
		h-9.76V0h9.209C184.135,0.049,185.927,0.447,187.597,1.196z"/>
	<path fill="#FFFFFF" d="M210.912,11.27c0.197,0.025,0.534,0.072,1.015,0.146c0.479,0.075,1.019,0.216,1.62,0.424
		c0.601,0.21,1.221,0.484,1.86,0.829c0.639,0.343,1.215,0.816,1.73,1.418c0.516,0.602,0.944,1.332,1.289,2.191
		c0.343,0.86,0.516,1.891,0.516,3.094c0,0.05-0.02,0.289-0.055,0.719c-0.038,0.43-0.154,0.951-0.352,1.564
		c-0.195,0.614-0.49,1.266-0.883,1.952c-0.393,0.688-0.959,1.333-1.693,1.934c-0.738,0.603-1.666,1.099-2.781,1.492
		c-1.118,0.392-2.487,0.589-4.106,0.589c-1.5,0-2.918-0.314-4.255-0.939c-1.338-0.625-2.485-1.491-3.444-2.598l3.759-2.908
		c0,0.023,0.091,0.136,0.274,0.332c0.184,0.195,0.454,0.404,0.812,0.625c0.355,0.223,0.811,0.424,1.363,0.609
		c0.551,0.184,1.208,0.275,1.969,0.275c1.401,0,2.493-0.363,3.279-1.086c0.785-0.726,1.178-1.579,1.178-2.561
		c0-0.711-0.147-1.296-0.441-1.751c-0.295-0.453-0.695-0.821-1.197-1.104c-0.504-0.28-1.081-0.505-1.732-0.663
		c-0.649-0.159-1.343-0.312-2.08-0.461c-0.196-0.024-0.522-0.084-0.975-0.185c-0.455-0.098-0.959-0.257-1.513-0.479
		c-0.55-0.22-1.128-0.508-1.73-0.865c-0.602-0.354-1.141-0.81-1.619-1.363c-0.48-0.553-0.878-1.216-1.198-1.988
		c-0.319-0.773-0.479-1.689-0.479-2.744c0-0.049,0.02-0.277,0.055-0.681c0.037-0.405,0.146-0.896,0.333-1.474
		c0.183-0.577,0.479-1.197,0.883-1.86c0.406-0.663,0.978-1.271,1.712-1.822c0.738-0.553,1.664-1.014,2.781-1.383
		C207.924,0.183,209.292,0,210.912,0c1.497,0,2.924,0.318,4.272,0.958c1.352,0.638,2.505,1.51,3.464,2.615l-3.758,2.91
		c-0.271-0.467-0.651-0.829-1.142-1.086c-0.492-0.259-0.982-0.45-1.473-0.571c-0.591-0.123-1.217-0.196-1.879-0.221
		c-1.4,0-2.493,0.276-3.278,0.829c-0.785,0.551-1.178,1.333-1.178,2.338c0,0.712,0.122,1.271,0.368,1.675
		c0.245,0.406,0.583,0.72,1.012,0.939c0.43,0.222,0.952,0.388,1.565,0.498C209.5,10.993,210.175,11.123,210.912,11.27z"/>
</g>
</svg>
