<?xml version="1.0" encoding="utf-8"?>
<!-- Generator: Adobe Illustrator 16.2.0, SVG Export Plug-In . SVG Version: 6.00 Build 0)  -->
<!DOCTYPE svg PUBLIC "-//W3C//DTD SVG 1.1//EN" "http://www.w3.org/Graphics/SVG/1.1/DTD/svg11.dtd">
<svg version="1.1" id="Layer_1" xmlns="http://www.w3.org/2000/svg" xmlns:xlink="http://www.w3.org/1999/xlink" x="0px" y="0px"
	 width="138px" height="138px" viewBox="0 0 138 138" enable-background="new 0 0 138 138" xml:space="preserve">
<g>
	<path fill="#FFFFFF" d="M68.999,0C30.891,0,0,30.892,0,69c0,38.105,30.891,69,68.999,69C107.106,138,138,107.106,138,69
		C138,30.892,107.106,0,68.999,0z M39.479,94.213H18.741l0.821-13.51c0,0,0.365-2.33,3.834-3.242
		c3.47-0.912,8.125-3.104,8.583-3.652c0.457-0.548,1.87-3.059,3.652-3.379v-2.465c0,0-7.852-0.914-8.949-4.153
		c0,0,1.599,1.186,2.763-1.689c1.163-2.872-0.565-21.771,11.709-21.591V40.53c0.009,0,0.015,0.002,0.023,0
		c0.008,0.002,0.016,0,0.021,0v0.002c12.274-0.181,10.546,18.719,11.71,21.591c1.163,2.875,2.761,1.689,2.761,1.689
		c-1.096,3.239-8.945,4.153-8.945,4.153v2.465c1.662,0.301,3.005,2.507,3.548,3.244c-1.736,0.726-3.342,1.504-4.481,2.342
		c-1.464,1.076-3.138,3.518-5.444,13.994C40.027,91.466,39.735,92.897,39.479,94.213z M97.683,101.561H69.44H41.199V101.2
		c0,0,0.484-3.08,1.257-6.986c1.224-6.187,3.17-14.449,5.065-15.844c1.339-0.983,3.707-1.967,6.042-2.859
		c3.06-1.17,6.059-2.181,6.601-2.824c0.955-1.137,0.863-1.229,0.818-2.456l2.229-0.273v-2.864c0,0-0.013,0.002-0.037,0.002
		c-0.275,0-2.057-0.194-2.102-5.187c0,0-0.077,0.034-0.21,0.034c-0.475,0-1.669-0.44-2.836-4.401
		c-0.868-2.944-0.338-3.669,0.327-3.669c0.484,0,1.04,0.387,1.174,0.578c0,0-0.651-2.338-0.722-5.276
		c-1.14-0.298-1.567-0.563-1.567-0.563c-0.486-10.347,10.225-11.124,10.225-11.124h1.978h1.979c0,0,10.713,0.777,10.224,11.124
		c0,0-0.428,0.265-1.566,0.563c-0.07,2.938-0.723,5.276-0.723,5.276c0.136-0.191,0.69-0.578,1.175-0.578
		c0.664,0,1.193,0.726,0.327,3.669c-1.168,3.961-2.36,4.401-2.835,4.401c-0.136,0-0.213-0.034-0.213-0.034
		c-0.042,4.993-1.826,5.187-2.101,5.187c-0.025,0-0.037-0.002-0.037-0.002v2.864l2.229,0.273c-0.044,1.228-0.136,1.319,0.819,2.456
		c0.198,0.234,0.724,0.518,1.456,0.84c2.818,1.237,8.732,3.039,11.187,4.844c1.998,1.469,4.053,10.574,5.256,16.83
		c0.662,3.425,1.065,6,1.065,6V101.561z M99.594,95.2c-0.3-1.576-0.657-3.361-1.06-5.189c-2.306-10.477-3.979-12.918-5.442-13.994
		c-2.014-1.479-5.481-2.773-8.54-3.916c-0.106-0.04-0.215-0.08-0.324-0.121c1.518-0.576,2.711-1.068,3.012-1.425
		c0.815-0.972,0.738-1.048,0.697-2.097l1.902-0.232V65.78c0,0-1.784,0.192-1.823-4.425c0,0-1.319,0.621-2.601-3.727
		c-1.281-4.347,1.01-3.027,1.281-2.64c0,0-2.783-9.983,3.431-13.368c-0.139-1.818,0.83-2.991,0.83-2.991
		c-0.022,1.028,0.076,1.848,0.251,2.505c0.57-0.209,1.204-0.368,1.903-0.474c0.12-2.534,2.046-4.223,2.046-4.223
		c-0.429,1.261-0.448,2.79-0.234,4.078c0.078,0,0.155-0.003,0.234-0.003c0.947,0,1.799,0.084,2.566,0.238
		c0.206-1.634-0.558-2.609-0.558-2.609c1.684,0.389,2.402,1.944,2.706,3.315c6.623,3.216,3.745,13.531,3.745,13.531
		c0.272-0.388,2.563-1.707,1.282,2.64c-1.282,4.348-2.602,3.727-2.602,3.727c-0.038,4.617-1.823,4.425-1.823,4.425v2.445
		l1.901,0.232c-0.038,1.049-0.116,1.125,0.698,2.097c0.815,0.97,8.15,2.911,10.789,4.851c2.64,1.941,5.396,19.484,5.396,19.484V95.2
		H99.594z"/>
</g>
</svg>
