<?xml version="1.0" encoding="utf-8"?>
<!-- Generator: Adobe Illustrator 16.2.0, SVG Export Plug-In . SVG Version: 6.00 Build 0)  -->
<!DOCTYPE svg PUBLIC "-//W3C//DTD SVG 1.1//EN" "http://www.w3.org/Graphics/SVG/1.1/DTD/svg11.dtd">
<svg version="1.1" id="Layer_1" xmlns="http://www.w3.org/2000/svg" xmlns:xlink="http://www.w3.org/1999/xlink" x="0px" y="0px"
	 width="138px" height="138px" viewBox="0 0 138 138" enable-background="new 0 0 138 138" xml:space="preserve">
<g>
	<path fill="#FFFFFF" d="M68.999,0C30.891,0,0,30.893,0,69c0,38.105,30.891,69,68.999,69C107.105,138,138,107.105,138,69
		C138,30.893,107.105,0,68.999,0z M72.782,109.764l-30.941,0.01c-3.393,0-6.142-2.805-6.142-6.264v-2.182h-0.006V32.883
		c0-3.578,2.9-6.479,6.479-6.479h3.649v74.924h-3.606H41.22c-1.956,0-3.5,1.857-2.953,3.895c0.361,1.351,1.665,2.232,3.06,2.232
		h6.071h14.575h10.808c0.637,0,1.152,0.518,1.152,1.154C73.934,109.247,73.418,109.762,72.782,109.764z M90.148,109.093
		c0,2.207-2.649,3.329-4.235,1.794c-0.968-0.936-2.507-0.936-3.476,0c-1.584,1.535-4.234,0.413-4.234-1.794v-7.765H61.974H48.413
		V26.404h42.435c3.578,0,6.479,2.901,6.479,6.479V94.85c0,3.578-2.9,6.479-6.479,6.479h-0.699V109.093L90.148,109.093z
		 M102.307,103.491c0,3.459-2.75,6.264-6.143,6.264l-1.402,0.002c-0.636,0-1.15-0.516-1.15-1.149v-0.073
		c0-0.595,0.48-1.077,1.076-1.077c2.861,0,5.183-2.32,5.183-5.184V37.458c0-0.543-0.106-1.057-0.261-1.549
		c1.627,1.127,2.697,3.028,2.697,5.186V103.491z"/>
	<path fill="#FFFFFF" d="M83.148,41.96H54.855c-1.431,0-2.592,1.16-2.592,2.591v16.724c0,1.431,1.161,2.591,2.592,2.591h28.293
		c1.433,0,2.592-1.16,2.592-2.591V44.551C85.74,43.12,84.581,41.96,83.148,41.96z M64.198,55.382
		c0.528,0.482,0.565,1.302,0.083,1.831c-0.256,0.28-0.605,0.422-0.958,0.422c-0.311,0-0.624-0.112-0.872-0.338l-4.378-3.991
		c-0.269-0.245-0.423-0.593-0.423-0.957c0-0.364,0.153-0.712,0.423-0.958l4.378-3.991c0.529-0.482,1.35-0.444,1.83,0.084
		c0.482,0.529,0.445,1.348-0.083,1.83l-3.328,3.035L64.198,55.382z M72.65,46.02l-4.858,13.497c-0.19,0.528-0.688,0.857-1.22,0.857
		c-0.145,0-0.294-0.025-0.438-0.077c-0.673-0.242-1.022-0.985-0.78-1.658l4.859-13.497c0.242-0.673,0.986-1.02,1.658-0.78
		C72.545,44.604,72.895,45.347,72.65,46.02z M79.932,53.306l-4.377,3.991c-0.248,0.227-0.563,0.338-0.873,0.338
		c-0.353,0-0.701-0.142-0.957-0.422c-0.483-0.529-0.445-1.348,0.084-1.831l3.328-3.034l-3.328-3.035
		c-0.529-0.482-0.567-1.301-0.084-1.83c0.481-0.528,1.301-0.566,1.83-0.084l4.377,3.991c0.27,0.246,0.422,0.593,0.422,0.958
		C80.354,52.713,80.2,53.061,79.932,53.306z"/>
</g>
</svg>
