<?xml version="1.0" encoding="utf-8"?>
<!-- Generator: Adobe Illustrator 16.2.0, SVG Export Plug-In . SVG Version: 6.00 Build 0)  -->
<!DOCTYPE svg PUBLIC "-//W3C//DTD SVG 1.1//EN" "http://www.w3.org/Graphics/SVG/1.1/DTD/svg11.dtd">
<svg version="1.1" id="Layer_1" xmlns="http://www.w3.org/2000/svg" xmlns:xlink="http://www.w3.org/1999/xlink" x="0px" y="0px"
	 width="138px" height="138px" viewBox="0 0 138 138" enable-background="new 0 0 138 138" xml:space="preserve">
<g>
	<path fill="#404041" d="M68.999,0C30.891,0,0,30.891,0,69c0,38.107,30.891,69,68.999,69C107.106,138,138,107.107,138,69
		C138,30.891,107.106,0,68.999,0z M39.628,101.118c0,1.433-1.16,2.593-2.592,2.593H23.542c-1.431,0-2.591-1.16-2.591-2.593v-25.09
		c0-1.433,1.16-2.592,2.591-2.592h13.494c1.432,0,2.592,1.159,2.592,2.592V101.118z M81.515,100.546H49.75
		c-1.197,0-2.177-0.979-2.177-2.176c0-1.197,0.979-2.177,2.177-2.177h5.271v-4.004h26.494V100.546z M81.527,59.993v29.567H42.22
		V76.028c0-2.86-2.325-5.184-5.184-5.184h-6.747V37.368c0-3.579,2.901-6.48,6.479-6.48h65.541c3.578,0,6.479,2.901,6.479,6.48V54.81
		H86.711C83.854,54.81,81.527,57.133,81.527,59.993z M117.05,104.521c0,1.433-1.16,2.592-2.592,2.592H86.711
		c-1.432,0-2.592-1.159-2.592-2.592V59.993c0-1.433,1.16-2.592,2.592-2.592h27.747c1.432,0,2.592,1.159,2.592,2.592V104.521z"/>
	<rect x="22.976" y="77.215" fill="#404041" width="14.646" height="22.585"/>
	<circle fill="#404041" cx="100.584" cy="103.999" r="1.749"/>
	<circle fill="#404041" cx="70.354" cy="83.671" r="2.346"/>
	<rect x="86.144" y="61.18" fill="#404041" width="28.899" height="39.43"/>
</g>
</svg>
