<?xml version="1.0" encoding="utf-8"?>
<!-- Generator: Adobe Illustrator 16.2.0, SVG Export Plug-In . SVG Version: 6.00 Build 0)  -->
<!DOCTYPE svg PUBLIC "-//W3C//DTD SVG 1.1//EN" "http://www.w3.org/Graphics/SVG/1.1/DTD/svg11.dtd">
<svg version="1.1" id="Layer_1" xmlns="http://www.w3.org/2000/svg" xmlns:xlink="http://www.w3.org/1999/xlink" x="0px" y="0px"
	 width="77.288px" height="77.287px" viewBox="0 0 77.288 77.287" enable-background="new 0 0 77.288 77.287" xml:space="preserve">
<g>
	<path fill="#FFFFFF" d="M34.151,35.443c0.664-0.402,0.993-1.12,0.993-2.154c0-1.141-0.438-1.895-1.317-2.26
		c-0.754-0.251-1.719-0.386-2.891-0.386h-4.561v5.41h5.187C32.628,36.054,33.488,35.849,34.151,35.443z"/>
	<path fill="#FFFFFF" d="M51.395,35.893c-1.184,0-2.09,0.343-2.736,1.009c-0.651,0.666-1.063,1.57-1.226,2.719h7.907
		c-0.084-1.221-0.495-2.144-1.229-2.776C53.385,36.212,52.478,35.893,51.395,35.893z"/>
	<path fill="#FFFFFF" d="M34.086,40.525c-0.581-0.27-1.401-0.408-2.452-0.417h-5.26v6.532h5.178c1.061,0,1.886-0.139,2.483-0.432
		c1.071-0.531,1.609-1.549,1.609-3.061C35.646,41.875,35.125,40.996,34.086,40.525z"/>
	<path fill="#FFFFFF" d="M38.644,0C17.301,0,0,17.3,0,38.643c0,21.343,17.301,38.644,38.644,38.644
		c21.343,0,38.644-17.301,38.644-38.644C77.288,17.3,59.987,0,38.644,0z M46.419,27.408h9.872v2.449h-9.872V27.408z M39.719,47.41
		c-0.465,0.761-1.041,1.406-1.733,1.924c-0.781,0.602-1.706,1.01-2.768,1.231c-1.064,0.218-2.218,0.331-3.459,0.331H20.723V26.391
		h11.837c2.983,0.048,5.097,0.913,6.342,2.609c0.751,1.041,1.125,2.289,1.125,3.742c0,1.498-0.379,2.695-1.133,3.609
		c-0.42,0.508-1.043,0.976-1.867,1.394c1.247,0.457,2.192,1.175,2.827,2.165c0.634,0.986,0.952,2.184,0.952,3.588
		C40.806,44.953,40.45,46.258,39.719,47.41z M60.101,42.646H47.323c0.072,1.766,0.678,3,1.834,3.706
		c0.695,0.44,1.543,0.657,2.529,0.657c1.041,0,1.893-0.265,2.547-0.805c0.355-0.287,0.671-0.695,0.944-1.205h4.686
		c-0.125,1.045-0.692,2.1-1.702,3.173c-1.572,1.704-3.771,2.563-6.603,2.563c-2.335,0-4.395-0.723-6.184-2.16
		c-1.782-1.443-2.674-3.784-2.674-7.031c0-3.047,0.802-5.377,2.415-6.999c1.615-1.628,3.705-2.435,6.279-2.435
		c1.522,0,2.9,0.272,4.128,0.822c1.222,0.547,2.232,1.411,3.028,2.597c0.719,1.046,1.184,2.254,1.401,3.633
		C60.07,39.967,60.125,41.126,60.101,42.646z"/>
</g>
</svg>
