<?xml version="1.0" encoding="utf-8"?>
<!-- Generator: Adobe Illustrator 16.2.0, SVG Export Plug-In . SVG Version: 6.00 Build 0)  -->
<!DOCTYPE svg PUBLIC "-//W3C//DTD SVG 1.1//EN" "http://www.w3.org/Graphics/SVG/1.1/DTD/svg11.dtd">
<svg version="1.1" id="Layer_1" xmlns="http://www.w3.org/2000/svg" xmlns:xlink="http://www.w3.org/1999/xlink" x="0px" y="0px"
	 width="77.288px" height="77.287px" viewBox="0 0 77.288 77.287" enable-background="new 0 0 77.288 77.287" xml:space="preserve">
<g>
	<path fill="#FFFFFF" d="M38.644,0C17.301,0,0,17.301,0,38.644c0,21.342,17.301,38.644,38.644,38.644
		c21.342,0,38.644-17.302,38.644-38.644C77.288,17.301,59.986,0,38.644,0z M45.917,38.655h-4.76c0,7.611,0,16.977,0,16.977h-7.055
		c0,0,0-9.271,0-16.977H30.75v-5.998h3.353v-3.883c0-2.774,1.322-7.12,7.121-7.12l5.229,0.021v5.823c0,0-3.178,0-3.796,0
		c-0.62,0-1.499,0.311-1.499,1.633v3.525h5.379L45.917,38.655z"/>
</g>
</svg>
