<?xml version="1.0" encoding="utf-8"?>
<!-- Generator: Adobe Illustrator 16.2.0, SVG Export Plug-In . SVG Version: 6.00 Build 0)  -->
<!DOCTYPE svg PUBLIC "-//W3C//DTD SVG 1.1//EN" "http://www.w3.org/Graphics/SVG/1.1/DTD/svg11.dtd">
<svg version="1.1" id="Layer_1" xmlns="http://www.w3.org/2000/svg" xmlns:xlink="http://www.w3.org/1999/xlink" x="0px" y="0px"
	 width="77.288px" height="77.287px" viewBox="0 0 77.288 77.287" enable-background="new 0 0 77.288 77.287" xml:space="preserve">
<g>
	<path fill="#FFFFFF" d="M38.643,0C17.3,0,0,17.301,0,38.644S17.3,77.287,38.643,77.287c21.344,0,38.645-17.301,38.645-38.644
		S59.987,0,38.643,0z M34.987,56.086c-6.582,0-9.759-3.139-9.759-6.51c0-1.633,0.816-3.951,3.496-5.543
		c2.812-1.73,6.627-1.955,8.673-2.097c-0.64-0.817-1.364-1.683-1.364-3.09c0-0.775,0.229-1.229,0.453-1.775
		c-0.5,0.046-0.998,0.09-1.451,0.09c-4.812,0-7.535-3.599-7.535-7.146c0-2.09,0.951-4.412,2.905-6.093
		c2.586-2.136,6.124-2.72,8.577-2.72h8.945l-2.952,1.854h-2.814c1.043,0.865,3.222,2.685,3.222,6.146
		c0,3.363-1.903,4.959-3.81,6.459c-0.59,0.59-1.273,1.229-1.273,2.229c0,0.997,0.684,1.544,1.18,1.956l1.637,1.272
		c1.996,1.683,3.813,3.229,3.813,6.371C46.929,51.764,42.795,56.086,34.987,56.086z M59.145,38.089h-4.567v4.574h-2.245v-4.574
		h-4.541v-2.271h4.541v-4.55h2.245v4.55h4.567V38.089z"/>
	<path fill="#FFFFFF" d="M38.938,43.258c-0.362-0.049-0.591-0.049-1.042-0.049c-0.412,0-2.861,0.091-4.769,0.734
		c-0.998,0.363-3.903,1.453-3.903,4.686c0,3.229,3.134,5.553,7.99,5.553c4.358,0,6.675-2.1,6.675-4.916
		C43.889,46.943,42.393,45.715,38.938,43.258z"/>
	<path fill="#FFFFFF" d="M41.391,31.293c0-3.277-1.954-8.367-5.722-8.367c-1.184,0-2.45,0.588-3.178,1.498
		c-0.774,0.959-0.997,2.18-0.997,3.367c0,3.045,1.77,8.094,5.673,8.094c1.137,0,2.358-0.54,3.089-1.267
		C41.299,33.563,41.391,32.113,41.391,31.293z"/>
</g>
</svg>
