<?xml version="1.0" encoding="utf-8"?>
<!-- Generator: Adobe Illustrator 16.2.0, SVG Export Plug-In . SVG Version: 6.00 Build 0)  -->
<!DOCTYPE svg PUBLIC "-//W3C//DTD SVG 1.1//EN" "http://www.w3.org/Graphics/SVG/1.1/DTD/svg11.dtd">
<svg version="1.1" id="Layer_1" xmlns="http://www.w3.org/2000/svg" xmlns:xlink="http://www.w3.org/1999/xlink" x="0px" y="0px"
	 width="77.288px" height="77.287px" viewBox="0 0 77.288 77.287" enable-background="new 0 0 77.288 77.287" xml:space="preserve">
<g>
	<path fill="#FFFFFF" d="M38.643,0C17.3,0,0,17.301,0,38.643C0,59.986,17.3,77.287,38.643,77.287
		c21.344,0,38.646-17.301,38.646-38.645C77.289,17.301,59.987,0,38.643,0z M33.076,49.646h-5.769V32.307h5.769V49.646z
		 M30.191,29.938h-0.036c-1.938,0-3.187-1.334-3.187-2.996c0-1.704,1.289-3.001,3.26-3.001c1.972,0,3.187,1.297,3.224,3.001
		C33.452,28.604,32.2,29.938,30.191,29.938z M53.862,49.646h-5.765v-9.276c0-2.332-0.834-3.926-2.922-3.926
		c-1.592,0-2.541,1.078-2.957,2.113c-0.155,0.37-0.191,0.887-0.191,1.404v9.685h-5.765c0,0,0.077-15.715,0-17.339h5.765v2.453
		c0.77-1.181,2.137-2.861,5.199-2.861c3.791,0,6.636,2.48,6.636,7.806V49.646z"/>
</g>
</svg>
