<?xml version="1.0" encoding="utf-8"?>
<!-- Generator: Adobe Illustrator 16.2.0, SVG Export Plug-In . SVG Version: 6.00 Build 0)  -->
<!DOCTYPE svg PUBLIC "-//W3C//DTD SVG 1.1//EN" "http://www.w3.org/Graphics/SVG/1.1/DTD/svg11.dtd">
<svg version="1.1" id="Layer_1" xmlns="http://www.w3.org/2000/svg" xmlns:xlink="http://www.w3.org/1999/xlink" x="0px" y="0px"
	 width="77.288px" height="77.287px" viewBox="0 0 77.288 77.287" enable-background="new 0 0 77.288 77.287" xml:space="preserve">
<g>
	<path fill="#FFFFFF" d="M38.644,0C17.301,0,0,17.302,0,38.645c0,21.342,17.301,38.643,38.644,38.643
		c21.343,0,38.644-17.301,38.644-38.643C77.288,17.302,59.987,0,38.644,0z M53.929,31.713c0.014,0.302,0.02,0.6,0.02,0.9
		c0,9.216-7.014,19.836-19.836,19.836c-3.938,0-7.6-1.151-10.687-3.133c0.548,0.068,1.102,0.098,1.665,0.098
		c3.268,0,6.273-1.113,8.656-2.983c-3.047-0.054-5.625-2.069-6.51-4.841c0.427,0.084,0.861,0.125,1.31,0.125
		c0.638,0,1.254-0.083,1.837-0.246c-3.187-0.638-5.592-3.459-5.592-6.834c0-0.029,0-0.061,0-0.088
		c0.942,0.524,2.016,0.84,3.158,0.873c-1.869-1.25-3.099-3.387-3.099-5.805c0-1.279,0.342-2.471,0.943-3.504
		c3.437,4.216,8.576,6.991,14.367,7.283c-0.117-0.512-0.179-1.041-0.179-1.588c0-3.85,3.12-6.969,6.973-6.969
		c2.003,0,3.815,0.846,5.087,2.197c1.586-0.312,3.08-0.893,4.428-1.689c-0.523,1.627-1.626,2.995-3.065,3.855
		c1.41-0.166,2.755-0.538,4.004-1.096C56.472,29.504,55.291,30.732,53.929,31.713z"/>
</g>
</svg>
